<?xml version="1.0" ?><svg xmlns="http://www.w3.org/2000/svg" id="Nest" viewBox="0 0 64 64"><defs><style>
      .cls-1 {
        stroke-width: 0px;
      }
    </style></defs><path class="cls-1" d="M49.64,16.23L32.64,2.23c-.37-.31-.91-.31-1.28,0l-17,14c-.23.19-.36.47-.36.77v5c0,.39.22.74.57.9.35.17.77.12,1.07-.13l2.36-1.94v21.17h-1c-1.1,0-2,.9-2,2v2c0,1.1.9,2,2,2h11v13c0,.55.45,1,1,1h6c.55,0,1-.45,1-1v-13h11c1.1,0,2-.9,2-2v-2c0-1.1-.9-2-2-2h-1v-21.17l2.36,1.94c.19.15.41.23.64.23.15,0,.29-.03.43-.1.35-.16.57-.51.57-.9v-5c0-.3-.13-.58-.36-.77ZM47,44v2h-30v-2h30ZM39,32c.55,0,1,.45,1,1v4c0,.55-.45,1-1,1h-14c-.55,0-1-.45-1-1v-4c0-.55.45-1,1-1h14ZM27,23c0-2.76,2.24-5,5-5s5,2.24,5,5-2.24,5-5,5-5-2.24-5-5ZM48,19.88l-15.36-12.65c-.19-.15-.41-.23-.64-.23s-.45.08-.64.23l-15.36,12.65v-2.41l16-13.17,16,13.17v2.41Z"/></svg>